<svg xmlns="http://www.w3.org/2000/svg" width="1123" height="794" viewBox="0 0 1123 794" font-family="sans-serif">
<rect x="0" y="0" width="1123" height="794" fill="white"/>
<rect x="28" y="28" width="1067" height="738" fill="none" stroke="black" stroke-width="1.5"/>
<path d="M219.14 606.01L186.18 589.32M255.60 620.07L219.14 606.01M294.92 631.27L255.60 620.07M336.44 639.41L294.92 631.27M379.44 644.34L336.44 639.41M423.20 646.00L379.44 644.34M466.95 644.34L423.20 646.00M509.95 639.41L466.95 644.34M551.47 631.27L509.95 639.41M590.79 620.07L551.47 631.27M627.25 606.01L590.79 620.07M660.22 589.32L627.25 606.01M689.12 570.29L660.22 589.32M713.48 549.24L689.12 570.29M732.88 526.53L713.48 549.24M746.97 502.56L732.88 526.53M755.52 477.73L746.97 502.56M758.39 452.47L755.52 477.73M758.39 452.47L758.39 233.53M755.52 427.21L758.39 452.47M746.97 402.39L755.52 427.21M732.88 378.42L746.97 402.39M713.48 355.71L732.88 378.42M689.12 334.66L713.48 355.71M660.22 315.63L689.12 334.66M660.22 315.63L627.25 298.94M627.25 298.94L590.79 284.88M590.79 284.88L551.47 273.68M551.47 273.68L509.95 265.54M509.95 265.54L466.95 260.60M466.95 260.60L423.20 258.95M423.20 258.95L379.44 260.60M379.44 260.60L336.44 265.54M336.44 265.54L294.92 273.68M294.92 273.68L255.60 284.88M255.60 284.88L219.14 298.94M219.14 298.94L186.18 315.63M186.18 315.63L157.27 334.66M157.27 334.66L132.91 355.71M132.91 355.71L113.52 378.42M113.52 378.42L99.42 402.39M99.42 402.39L90.87 427.21M90.87 427.21L88.00 452.47M88.00 452.47L88.00 233.53M88.00 452.47L90.87 477.73M90.87 477.73L99.42 502.56M99.42 502.56L113.52 526.53M113.52 526.53L132.91 549.24M132.91 549.24L157.27 570.29M157.27 570.29L186.18 589.32M219.14 387.06L186.18 370.37M255.60 401.12L219.14 387.06M294.92 412.32L255.60 401.12M336.44 420.46L294.92 412.32M379.44 425.40L336.44 420.46M423.20 427.05L379.44 425.40M466.95 425.40L423.20 427.05M509.95 420.46L466.95 425.40M551.47 412.32L509.95 420.46M590.79 401.12L551.47 412.32M627.25 387.06L590.79 401.12M660.22 370.37L627.25 387.06M689.12 351.34L660.22 370.37M713.48 330.29L689.12 351.34M732.88 307.58L713.48 330.29M746.97 283.61L732.88 307.58M755.52 258.79L746.97 283.61M758.39 233.53L755.52 258.79M755.52 208.27L758.39 233.53M746.97 183.44L755.52 208.27M732.88 159.47L746.97 183.44M713.48 136.76L732.88 159.47M689.12 115.71L713.48 136.76M660.22 96.68L689.12 115.71M660.22 96.68L627.25 79.99M627.25 79.99L590.79 65.93M590.79 65.93L551.47 54.73M551.47 54.73L509.95 46.59M509.95 46.59L466.95 41.66M466.95 41.66L423.20 40.00M423.20 40.00L379.44 41.66M379.44 41.66L336.44 46.59M336.44 46.59L294.92 54.73M294.92 54.73L255.60 65.93M255.60 65.93L219.14 79.99M219.14 79.99L186.18 96.68M186.18 96.68L157.27 115.71M157.27 115.71L132.91 136.76M132.91 136.76L113.52 159.47M113.52 159.47L99.42 183.44M99.42 183.44L90.87 208.27M90.87 208.27L88.00 233.53M88.00 233.53L90.87 258.79M90.87 258.79L99.42 283.61M99.42 283.61L113.52 307.58M113.52 307.58L132.91 330.29M132.91 330.29L157.27 351.34M157.27 351.34L186.18 370.37" fill="none" stroke="black" stroke-width="1"/>
<text x="423.20" y="664.00" text-anchor="middle" font-size="13" fill="black">ISO</text>
<g font-family="sans-serif"><rect x="835" y="706" width="260" height="60" fill="none" stroke="black" stroke-width="1"/><line x1="835" y1="736.0" x2="1095" y2="736.0" stroke="black" stroke-width="0.75"/><text x="845" y="726" font-size="14" font-weight="bold" fill="black">tt_wheel_65mm</text><text x="845" y="751" font-size="12" fill="black">SIZE  65 mm × 65 mm × 26 mm</text></g>
</svg>